<!DOCTYPE svg PUBLIC "-//W3C//DTD SVG 1.1//EN" "http://www.w3.org/Graphics/SVG/1.1/DTD/svg11.dtd">
<!-- Uploaded to: SVG Repo, www.svgrepo.com, Transformed by: SVG Repo Mixer Tools -->
<svg width="800px" height="800px" viewBox="0 0 24 24" fill="none" xmlns="http://www.w3.org/2000/svg">
<g id="SVGRepo_bgCarrier" stroke-width="0"/>
<g id="SVGRepo_tracerCarrier" stroke-linecap="round" stroke-linejoin="round"/>
<g id="SVGRepo_iconCarrier"> <path fill-rule="evenodd" clip-rule="evenodd" d="M6.31215 12.463C7.3125 8.5 8.7243 6.5 11.7 6.5C14.6757 6.5 16.0875 8.5 17.0878 12.463L18.525 18.029H13.9747C13.9776 18.677 13.7394 19.3018 13.3088 19.776C12.8947 20.2372 12.3113 20.4996 11.7 20.4996C11.0887 20.4996 10.5053 20.2372 10.0913 19.776C9.66059 19.3018 9.42243 18.677 9.42533 18.029H4.875L6.31215 12.463Z" stroke="#ffffff" stroke-width="1.5" stroke-linecap="round" stroke-linejoin="round"/> <path d="M12.675 5.25C13.0892 5.25 13.425 4.91421 13.425 4.5C13.425 4.08579 13.0892 3.75 12.675 3.75V5.25ZM10.725 3.75C10.3108 3.75 9.97498 4.08579 9.97498 4.5C9.97498 4.91421 10.3108 5.25 10.725 5.25V3.75ZM6.31213 11.713C5.89792 11.713 5.56213 12.0488 5.56213 12.463C5.56213 12.8772 5.89792 13.213 6.31213 13.213V11.713ZM17.0878 13.213C17.502 13.213 17.8378 12.8772 17.8378 12.463C17.8378 12.0488 17.502 11.713 17.0878 11.713V13.213ZM9.42433 17.279C9.01012 17.279 8.67433 17.6148 8.67433 18.029C8.67433 18.4432 9.01012 18.779 9.42433 18.779V17.279ZM13.9747 18.779C14.3889 18.779 14.7247 18.4432 14.7247 18.029C14.7247 17.6148 14.3889 17.279 13.9747 17.279V18.779ZM12.675 3.75H10.725V5.25H12.675V3.75ZM6.31213 13.213H17.0878V11.713H6.31213V13.213ZM9.42433 18.779H13.9747V17.279H9.42433V18.779Z" fill="#ffffff"/> </g>
</svg>